M48
; DRILL file {KiCad (5.1.5)-3} date 19/05/2020 22:28:56
; FORMAT={-:-/ absolute / metric / decimal}
; #@! TF.CreationDate,2020-05-19T22:28:56+02:00
; #@! TF.GenerationSoftware,Kicad,Pcbnew,(5.1.5)-3
; #@! TF.FileFunction,Plated,1,2,PTH
FMAT,2
METRIC
T1C0.400
T2C0.500
T3C0.600
T4C0.900
T5C1.000
T6C2.200
T7C6.300
%
G90
G05
T1
X51.5Y-106.0
X51.5Y-110.0
X53.52Y-127.0
X54.0Y-94.75
X56.5Y-117.5
X56.5Y-127.0
X57.0Y-90.75
X57.97Y-93.47
X58.375Y-101.5
X58.5Y-98.07
X59.03Y-94.53
X59.5Y-100.5
X60.0Y-129.75
X60.0Y-131.25
X62.0Y-54.0
X63.0Y-69.5
X64.0Y-54.0
X64.0Y-97.0
X64.25Y-60.75
X65.0Y-69.5
X66.0Y-73.0
X66.0Y-85.25
X68.5Y-101.75
X69.0Y-85.25
X69.837Y-102.663
X70.0Y-117.5
X70.469Y-101.031
X71.0Y-73.0
X71.0Y-85.25
X73.0Y-97.0
X75.25Y-104.75
X76.0Y-86.25
X78.0Y-97.0
X79.5Y-106.75
X79.65Y-94.215
X79.764Y-98.264
X80.0Y-103.5
X80.0Y-129.75
X80.0Y-131.25
X82.0Y-57.0
X83.25Y-127.25
X83.5Y-117.5
X84.0Y-97.0
X86.5Y-127.25
X88.0Y-105.0
X88.0Y-110.0
X102.0Y-54.0
X102.0Y-69.0
X102.0Y-76.0
X102.0Y-81.0
X115.0Y-51.0
X115.25Y-61.0
X115.25Y-130.0
X115.25Y-133.0
X115.75Y-66.5
X116.0Y-148.0
X117.25Y-80.5
X117.5Y-83.75
X118.25Y-125.0
X120.25Y-77.0
X120.35Y-83.75
X122.0Y-80.5
X122.0Y-87.0
X122.0Y-117.0
X122.12Y-90.63
X122.925Y-83.75
X123.75Y-117.0
X124.075Y-83.75
X125.5Y-93.0
X125.532Y-90.468
X125.75Y-95.5
X126.736Y-94.264
X127.25Y-101.25
X127.5Y-85.0
X128.0Y-91.25
X128.0Y-110.0
X128.25Y-88.25
X128.35Y-81.725
X128.432Y-95.818
X128.477Y-102.477
X128.695Y-96.657
X128.75Y-58.0
X128.75Y-60.0
X128.75Y-80.5
X129.25Y-85.0
X129.25Y-92.5
X129.276Y-97.277
X129.75Y-88.25
X130.0Y-75.75
X130.0Y-98.0
X130.0Y-99.25
X130.0Y-106.25
X130.4Y-93.833
X130.999Y-94.436
X131.674Y-94.953
X132.0Y-60.0
X132.323Y-95.502
X132.75Y-110.25
X133.25Y-95.5
X133.25Y-100.25
X134.0Y-97.25
X134.75Y-59.0
X134.75Y-65.0
X136.0Y-115.0
X136.0Y-124.5
X136.0Y-133.25
X136.0Y-142.5
X136.25Y-110.25
X78.35Y-125.0
X78.833Y-123.833
X78.833Y-126.167
X80.0Y-123.35
X80.0Y-126.65
X81.167Y-123.833
X81.167Y-126.167
X81.65Y-125.0
X58.35Y-125.0
X58.833Y-123.833
X58.833Y-126.167
X60.0Y-123.35
X60.0Y-126.65
X61.167Y-123.833
X61.167Y-126.167
X61.65Y-125.0
T4
X147.5Y-122.46
X147.5Y-125.0
X116.25Y-140.71
X116.25Y-143.25
X147.75Y-131.46
X147.75Y-134.0
X147.5Y-113.21
X147.5Y-115.75
X147.5Y-103.96
X147.5Y-106.5
X147.75Y-57.96
X147.75Y-60.5
X53.5Y-145.0
X53.5Y-147.54
X116.25Y-112.71
X116.25Y-115.25
X147.5Y-76.46
X147.5Y-79.0
X116.5Y-103.71
X116.5Y-106.25
X147.5Y-85.71
X147.5Y-88.25
X86.5Y-145.0
X86.5Y-147.54
X116.5Y-94.71
X116.5Y-97.25
X147.5Y-94.71
X147.5Y-97.25
X147.5Y-67.21
X147.5Y-69.75
X147.5Y-140.71
X147.5Y-143.25
T5
X87.5Y-62.5
X87.5Y-65.0
X87.5Y-67.5
X52.5Y-62.5
X52.5Y-65.0
X52.5Y-67.5
X119.5Y-57.5
X122.0Y-57.5
X124.5Y-57.5
X68.75Y-53.25
X68.75Y-55.79
X68.75Y-58.33
X68.75Y-60.87
X68.75Y-63.41
X68.75Y-65.95
X68.75Y-68.49
X68.75Y-71.03
X71.29Y-53.25
X71.29Y-55.79
X71.29Y-58.33
X71.29Y-60.87
X71.29Y-63.41
X71.29Y-65.95
X71.29Y-68.49
X71.29Y-71.03
X87.5Y-82.5
X87.5Y-85.0
X87.5Y-87.5
X126.84Y-51.96
X126.84Y-54.5
X129.38Y-51.96
X129.38Y-54.5
X131.92Y-51.96
X131.92Y-54.5
X134.46Y-51.96
X134.46Y-54.5
X137.0Y-51.96
X137.0Y-54.5
X52.75Y-82.5
X52.75Y-85.0
X52.75Y-87.5
T6
X80.0Y-125.0
X60.0Y-125.0
T7
X102.0Y-145.0
X102.0Y-135.0
X102.0Y-85.0
X102.0Y-65.0
X102.0Y-115.0
T2
G00X137.08Y-127.411
M15
G01X137.08Y-125.811
M16
G05
G00X137.08Y-109.022
M15
G01X137.08Y-107.422
M16
G05
G00X137.08Y-81.439
M15
G01X137.08Y-79.839
M16
G05
G00X137.08Y-63.05
M15
G01X137.08Y-61.45
M16
G05
G00X137.08Y-136.606
M15
G01X137.08Y-135.006
M16
G05
G00X137.08Y-99.828
M15
G01X137.08Y-98.228
M16
G05
G00X75.08Y-115.8
M15
G01X75.08Y-114.2
M16
G05
G00X137.08Y-145.8
M15
G01X137.08Y-144.2
M16
G05
G00X64.92Y-114.2
M15
G01X64.92Y-115.8
M16
G05
G00X126.92Y-98.2
M15
G01X126.92Y-99.8
M16
G05
G00X75.08Y-145.8
M15
G01X75.08Y-144.2
M16
G05
G00X137.08Y-90.633
M15
G01X137.08Y-89.033
M16
G05
G00X126.92Y-116.2
M15
G01X126.92Y-117.8
M16
G05
G00X64.92Y-134.2
M15
G01X64.92Y-135.8
M16
G05
G00X75.055Y-135.775
M15
G01X75.055Y-134.175
M16
G05
G00X137.08Y-118.217
M15
G01X137.08Y-116.617
M16
G05
G00X126.92Y-144.2
M15
G01X126.92Y-145.8
M16
G05
G00X64.92Y-144.2
M15
G01X64.92Y-145.8
M16
G05
G00X126.92Y-107.2
M15
G01X126.92Y-108.8
M16
G05
G00X137.08Y-72.244
M15
G01X137.08Y-70.644
M16
G05
T3
G00X115.52Y-107.6
M15
G01X115.52Y-108.4
M16
G05
G00X118.62Y-107.3
M15
G01X118.62Y-108.7
M16
G05
G00X145.38Y-72.144
M15
G01X145.38Y-70.744
M16
G05
G00X148.48Y-71.844
M15
G01X148.48Y-71.044
M16
G05
G00X145.38Y-127.311
M15
G01X145.38Y-125.911
M16
G05
G00X148.48Y-127.011
M15
G01X148.48Y-126.211
M16
G05
G00X145.38Y-108.922
M15
G01X145.38Y-107.522
M16
G05
G00X148.48Y-108.622
M15
G01X148.48Y-107.822
M16
G05
G00X145.38Y-81.339
M15
G01X145.38Y-79.939
M16
G05
G00X148.48Y-81.039
M15
G01X148.48Y-80.239
M16
G05
G00X145.38Y-62.95
M15
G01X145.38Y-61.55
M16
G05
G00X148.48Y-62.65
M15
G01X148.48Y-61.85
M16
G05
G00X145.38Y-136.506
M15
G01X145.38Y-135.106
M16
G05
G00X148.48Y-136.206
M15
G01X148.48Y-135.406
M16
G05
G00X145.38Y-99.728
M15
G01X145.38Y-98.328
M16
G05
G00X148.48Y-99.428
M15
G01X148.48Y-98.628
M16
G05
G00X83.38Y-115.7
M15
G01X83.38Y-114.3
M16
G05
G00X86.48Y-115.4
M15
G01X86.48Y-114.6
M16
G05
G00X145.38Y-145.7
M15
G01X145.38Y-144.3
M16
G05
G00X148.48Y-145.4
M15
G01X148.48Y-144.6
M16
G05
G00X53.52Y-114.6
M15
G01X53.52Y-115.4
M16
G05
G00X56.62Y-114.3
M15
G01X56.62Y-115.7
M16
G05
G00X115.52Y-98.6
M15
G01X115.52Y-99.4
M16
G05
G00X118.62Y-98.3
M15
G01X118.62Y-99.7
M16
G05
G00X83.38Y-145.7
M15
G01X83.38Y-144.3
M16
G05
G00X86.48Y-145.4
M15
G01X86.48Y-144.6
M16
G05
G00X145.38Y-90.533
M15
G01X145.38Y-89.133
M16
G05
G00X148.48Y-90.233
M15
G01X148.48Y-89.433
M16
G05
G00X115.52Y-116.6
M15
G01X115.52Y-117.4
M16
G05
G00X118.62Y-116.3
M15
G01X118.62Y-117.7
M16
G05
G00X53.52Y-134.6
M15
G01X53.52Y-135.4
M16
G05
G00X56.62Y-134.3
M15
G01X56.62Y-135.7
M16
G05
G00X83.355Y-135.675
M15
G01X83.355Y-134.275
M16
G05
G00X86.455Y-135.375
M15
G01X86.455Y-134.575
M16
G05
G00X145.38Y-118.117
M15
G01X145.38Y-116.717
M16
G05
G00X148.48Y-117.817
M15
G01X148.48Y-117.017
M16
G05
G00X115.52Y-144.6
M15
G01X115.52Y-145.4
M16
G05
G00X118.62Y-144.3
M15
G01X118.62Y-145.7
M16
G05
G00X53.52Y-144.6
M15
G01X53.52Y-145.4
M16
G05
G00X56.62Y-144.3
M15
G01X56.62Y-145.7
M16
G05
T5
G00X117.3Y-130.65
M15
G01X117.3Y-129.35
M16
G05
G00X122.0Y-130.65
M15
G01X122.0Y-129.35
M16
G05
G00X126.7Y-130.65
M15
G01X126.7Y-129.35
M16
G05
T0
M30
